<?xml version="1.0" standalone="no"?>
<!DOCTYPE svg PUBLIC "-//W3C//DTD SVG 20010904//EN"
 "http://www.w3.org/TR/2001/REC-SVG-20010904/DTD/svg10.dtd">
<svg version="1.0" xmlns="http://www.w3.org/2000/svg"
 width="443.000000pt" height="443.000000pt" viewBox="0 0 443.000000 443.000000"
 preserveAspectRatio="xMidYMid meet">
<metadata>
Created by potrace 1.14, written by Peter Selinger 2001-2017
</metadata>
<g transform="translate(0.000000,443.000000) scale(0.100000,-0.100000)"
fill="#000000" stroke="none">
<path d="M3372 4418 c-7 -7 -12 -20 -12 -30 0 -11 -7 -18 -19 -18 -11 0 -26
-8 -33 -18 -7 -10 -20 -23 -30 -28 -9 -5 -31 -23 -50 -39 -41 -38 -59 -45
-128 -52 -30 -2 -56 -6 -58 -8 -2 -1 7 -20 19 -41 16 -30 19 -42 10 -56 -10
-15 -8 -18 14 -18 13 0 40 8 59 17 30 14 45 15 93 6 65 -12 92 -2 59 22 -12 9
-19 27 -19 45 0 19 7 36 19 44 10 8 31 25 45 37 15 13 54 48 88 78 34 30 61
58 61 63 0 13 -105 9 -118 -4z"/>
<path d="M3345 4109 c-15 -7 -12 -8 13 -3 24 4 32 2 32 -9 0 -7 10 -18 23 -24
12 -6 42 -20 67 -31 25 -11 59 -24 75 -27 17 -4 55 -16 86 -26 30 -10 62 -19
71 -19 8 0 37 -8 64 -19 91 -34 119 -43 182 -57 34 -8 75 -20 91 -29 16 -8 30
-12 33 -10 2 2 42 -9 89 -26 46 -17 100 -35 119 -39 19 -5 53 -15 75 -24 56
-21 65 -20 65 12 0 24 -5 29 -42 38 -132 34 -175 48 -190 61 -10 9 -24 13 -32
10 -8 -3 -49 7 -93 23 -120 43 -162 57 -243 80 -41 12 -91 27 -110 35 -94 36
-339 101 -354 94 0 0 -10 -5 -21 -10z"/>
<path d="M3018 4071 c-16 -14 -28 -31 -28 -36 0 -6 6 -3 13 7 7 9 24 18 37 20
26 3 38 23 18 30 -7 3 -25 -7 -40 -21z"/>
<path d="M1957 3846 c-134 -18 -257 -47 -257 -63 0 -6 -17 -17 -37 -23 -67
-20 -142 -62 -186 -102 -31 -28 -36 -37 -20 -33 27 7 40 -11 14 -20 -12 -4
-18 -12 -15 -20 4 -9 -4 -19 -19 -26 -14 -6 -28 -18 -32 -27 -4 -12 1 -13 25
-9 17 4 30 2 30 -3 0 -6 -6 -10 -12 -10 -10 0 -9 -3 1 -9 11 -7 10 -11 -5 -20
-17 -9 -16 -10 9 -11 25 0 27 -2 17 -20 -12 -23 -1 -26 32 -9 15 8 19 8 13 0
-10 -18 75 19 125 53 61 42 106 59 161 60 41 1 114 -11 81 -13 -7 -1 -10 -5
-7 -11 8 -12 45 -13 45 -1 0 4 12 6 28 3 15 -3 21 -7 15 -9 -29 -10 -10 -23
33 -23 27 0 43 -4 39 -10 -3 -5 -16 -10 -28 -10 -18 0 -22 -6 -22 -33 0 -17 4
-38 8 -44 11 -18 35 -16 39 2 2 13 6 12 20 -5 17 -20 17 -20 -15 -20 -24 0
-35 -6 -43 -24 -7 -15 -8 -28 -2 -34 5 -5 5 -20 -2 -37 -9 -23 -7 -30 10 -45
12 -10 17 -21 12 -24 -9 -5 -20 -44 -28 -96 -2 -15 3 -30 14 -39 15 -12 11
-13 -28 -8 -25 3 -38 3 -29 1 10 -3 19 -14 22 -25 3 -10 12 -19 21 -19 22 0
20 -13 -5 -28 -18 -12 -20 -20 -15 -53 4 -24 2 -39 -4 -39 -5 0 -10 -8 -10
-18 0 -12 -18 -29 -52 -47 -29 -15 -60 -34 -68 -41 -8 -7 -17 -13 -20 -13 -17
0 -40 -15 -39 -25 4 -30 -2 -60 -9 -49 -5 8 -12 2 -21 -18 -9 -22 -18 -28 -31
-24 -21 7 -40 -37 -40 -90 0 -37 -24 -112 -44 -135 -7 -8 -12 -28 -11 -45 1
-17 -6 -39 -16 -50 -20 -23 -84 -157 -94 -197 -5 -21 -3 -29 9 -34 12 -5 14
-16 9 -52 -3 -26 -9 -51 -13 -55 -12 -13 20 -67 45 -77 41 -16 39 -30 -4 -30
-22 0 -43 4 -46 10 -10 16 -44 6 -76 -23 -16 -14 -30 -29 -29 -32 0 -5 -40
-96 -61 -137 -12 -23 -11 -31 2 -23 6 4 14 17 19 29 8 20 9 20 9 -4 l1 -24 16
22 c8 12 13 31 9 41 -9 30 11 33 24 4 9 -19 9 -28 1 -33 -6 -4 -12 -19 -14
-34 -1 -14 -11 -32 -21 -40 -12 -8 -16 -20 -12 -35 3 -11 1 -21 -4 -21 -5 0
-9 5 -9 10 0 6 -6 10 -14 10 -8 0 -17 6 -19 13 -4 8 -6 7 -6 -4 -1 -23 -36
-91 -43 -83 -4 3 -10 -15 -14 -41 -5 -33 -3 -49 6 -55 7 -4 8 -9 2 -11 -12 -5
-3 -69 10 -69 5 0 6 4 3 10 -4 6 1 7 11 3 11 -4 13 -8 6 -11 -14 -4 -16 -42
-2 -42 5 0 17 14 25 31 10 18 22 28 29 26 8 -3 19 4 26 16 6 12 41 45 76 72
36 28 71 55 78 62 7 6 26 10 42 8 109 -15 178 -26 182 -30 3 -2 -1 -11 -8 -20
-9 -11 -9 -15 -1 -15 7 0 9 -4 6 -10 -3 -5 -15 -10 -26 -10 -18 0 -19 -5 -14
-37 3 -20 13 -42 22 -49 15 -11 14 -11 -10 -7 -15 3 -25 8 -23 12 2 3 -2 22
-10 41 -7 19 -13 27 -13 18 -1 -10 -5 -18 -11 -18 -5 0 -10 -7 -10 -16 0 -13
-6 -15 -27 -9 -32 8 -33 8 -55 6 -10 0 -18 -7 -18 -14 0 -8 -12 -19 -26 -26
-34 -15 -28 -45 9 -49 25 -3 35 -27 11 -27 -5 0 -24 -7 -42 -15 -30 -14 -33
-18 -27 -47 3 -17 1 -34 -5 -38 -6 -4 -10 6 -10 24 0 45 -14 45 -47 -2 -38
-53 -47 -78 -27 -70 19 7 18 -4 -7 -43 -21 -35 -16 -47 7 -16 18 23 17 2 -2
-43 -14 -35 -14 -37 1 -31 12 4 16 2 12 -8 -3 -8 2 -16 13 -19 11 -3 19 -2 18
2 -3 28 5 31 17 6 l15 -30 -6 35 c-5 29 -4 33 7 23 17 -17 29 -16 29 2 0 8 4
15 10 15 5 0 15 18 21 40 13 44 39 75 39 47 0 -9 -4 -18 -9 -21 -8 -5 -19 -52
-24 -103 -2 -18 -7 -21 -22 -17 -15 4 -16 3 -6 -4 11 -8 11 -13 -2 -32 -22
-32 -11 -77 28 -113 28 -26 31 -32 21 -53 -6 -13 -19 -24 -28 -24 -16 0 -18
-9 -16 -67 l2 -68 3 62 c2 35 8 63 13 63 6 0 10 -6 10 -14 0 -7 9 -16 20 -19
11 -3 20 -14 20 -25 0 -10 12 -31 26 -45 21 -21 24 -31 19 -61 -4 -19 -16 -43
-26 -52 -14 -13 -16 -20 -7 -25 9 -6 9 -11 -1 -23 -7 -9 -11 -25 -8 -36 3 -11
1 -20 -5 -20 -6 0 -7 -7 -4 -16 3 -8 3 -27 0 -41 -7 -25 -7 -25 -18 -5 -11 21
-11 21 -23 -4 -6 -13 -7 -24 -2 -24 15 0 10 -30 -7 -37 -8 -3 -13 -12 -10 -19
3 -8 1 -14 -4 -14 -17 0 -11 -28 8 -34 9 -3 39 -4 65 -1 33 3 55 0 69 -9 11
-8 27 -12 34 -9 8 3 25 -2 39 -11 14 -9 30 -14 35 -11 6 3 10 -1 10 -9 0 -9 7
-16 15 -16 13 0 15 24 16 158 0 86 4 180 10 207 22 121 22 122 -1 154 -36 51
-20 69 18 20 27 -36 32 -39 32 -20 0 12 4 19 10 16 5 -3 7 -19 4 -35 -4 -19 2
-46 20 -84 14 -30 26 -57 26 -60 0 -2 23 -42 52 -88 28 -46 57 -94 64 -108 8
-14 14 -20 14 -15 1 12 78 -178 105 -258 l19 -57 132 0 c143 0 144 0 178 67
40 80 50 127 50 243 0 129 -13 197 -56 284 -30 63 -31 89 -2 144 l14 27 0 -27
c0 -16 -4 -28 -9 -28 -17 0 -6 -64 17 -100 12 -19 22 -39 22 -45 0 -5 4 -4 8
3 6 9 12 5 20 -13 11 -25 13 -25 34 -11 34 24 73 20 92 -9 18 -28 46 -34 46
-10 0 8 7 15 15 15 28 0 12 -141 -25 -225 -5 -11 -14 -40 -21 -65 -17 -68 -29
-91 -76 -142 -28 -31 -43 -57 -44 -75 0 -15 -3 -22 -6 -15 -2 6 -9 12 -15 12
-6 0 -5 -6 2 -15 11 -13 50 -15 273 -13 l260 3 12 40 c6 22 22 57 33 78 12 21
22 42 22 48 0 6 6 17 14 24 12 12 15 12 20 -2 11 -28 42 34 51 102 8 59 8 59
15 22 10 -54 20 -57 22 -6 1 37 2 39 5 12 2 -18 9 -33 15 -33 7 0 9 15 5 40
-5 39 5 55 16 26 8 -20 -3 -86 -14 -86 -5 0 -9 -10 -9 -22 1 -22 1 -22 12 -3
6 11 15 22 19 25 5 3 9 45 10 93 1 66 5 87 15 87 8 0 14 5 14 11 0 5 5 7 10 4
6 -3 10 2 11 12 3 68 19 100 19 39 0 -42 19 -41 21 2 1 17 3 21 6 9 6 -24 20
-21 27 5 8 32 6 47 -3 23 -5 -13 -8 -3 -8 30 0 28 2 41 5 30 7 -36 20 -38 27
-4 4 18 15 46 24 63 10 17 28 58 41 91 13 33 38 92 57 132 18 39 33 76 33 82
0 6 4 11 8 11 5 0 21 27 36 60 15 33 32 60 38 60 6 0 7 -7 4 -16 -3 -8 -18
-50 -32 -92 -15 -42 -31 -83 -36 -90 -6 -7 -8 -30 -4 -53 4 -27 3 -38 -4 -34
-10 6 -14 -6 -10 -39 2 -19 -26 -136 -40 -171 -15 -35 -44 -188 -45 -232 0
-22 -3 -39 -6 -37 -7 4 -43 -195 -36 -202 9 -9 55 76 91 171 73 189 180 350
329 494 105 100 129 121 143 121 8 0 14 4 14 9 0 5 33 14 73 21 39 6 95 19
122 29 28 9 64 17 80 16 17 -1 40 5 53 13 21 14 22 20 22 148 0 74 -3 134 -7
134 -7 0 -56 -16 -115 -36 -10 -4 -18 -10 -18 -14 0 -4 -11 -11 -25 -14 -13
-3 -39 -20 -56 -37 -17 -17 -33 -28 -36 -25 -3 3 -24 -16 -47 -42 -22 -25 -60
-64 -83 -86 -24 -21 -43 -45 -43 -53 0 -8 -4 -12 -8 -9 -9 6 -98 -103 -95
-116 2 -4 -2 -8 -7 -8 -6 0 -10 -9 -10 -20 0 -14 -5 -18 -17 -13 -11 4 -14 3
-9 -5 4 -7 -5 -28 -22 -50 -16 -20 -57 -80 -90 -132 -34 -52 -65 -99 -69 -105
-5 -5 -21 -34 -37 -64 -15 -30 -34 -60 -41 -68 -7 -7 -15 -18 -18 -25 -2 -7
-8 -10 -12 -6 -4 4 3 33 15 65 14 38 19 68 15 89 -4 24 2 47 24 91 16 32 45
92 64 133 19 41 44 85 57 98 12 13 20 26 17 29 -3 3 6 16 21 29 22 19 24 25
13 33 -10 7 -4 17 28 46 22 21 41 43 41 50 0 18 35 55 53 55 20 0 33 50 15 61
-22 14 27 57 59 51 19 -4 24 -1 21 9 -5 15 30 51 77 77 28 16 29 17 8 20 -27
4 -30 17 -7 30 13 7 11 13 -15 41 -30 32 -67 37 -55 8 5 -15 -23 -44 -33 -33
-3 3 -1 6 5 6 7 0 12 4 12 9 0 11 -87 -16 -96 -30 -3 -5 -10 -9 -15 -9 -21 0
25 49 52 55 16 4 31 11 34 16 7 11 -12 11 -40 0 -14 -6 -26 -1 -44 16 l-26 23
-8 -23 c-6 -13 -11 -17 -14 -9 -3 6 -14 12 -26 12 -20 0 -20 0 -1 15 18 14 18
14 -6 15 -14 0 -52 -5 -85 -10 -40 -6 -63 -6 -70 1 -7 7 -5 13 5 19 12 8 12
10 -3 16 -21 8 -87 -4 -87 -15 0 -9 -75 -26 -103 -23 -10 1 -23 7 -30 12 -7 6
-23 19 -35 30 -13 10 -21 24 -17 30 3 5 -1 18 -11 27 -16 16 -16 16 -10 -5 4
-12 5 -22 2 -22 -3 0 -10 19 -16 43 -6 23 -14 49 -17 57 -3 8 -5 23 -4 34 2
10 -2 22 -8 25 -8 5 -7 16 1 39 9 23 19 32 35 32 13 0 23 -5 23 -11 0 -19 41
-64 63 -69 14 -4 24 -16 28 -36 10 -53 16 -57 78 -49 31 4 65 7 76 7 77 0 105
-4 119 -17 8 -8 38 -20 66 -25 28 -5 58 -14 68 -18 22 -12 40 -5 67 26 20 23
23 24 74 13 28 -6 75 -11 104 -11 46 0 154 -14 270 -36 l37 -7 0 82 c0 44 -3
81 -7 81 -14 0 -136 20 -243 40 -58 10 -159 28 -225 40 -159 28 -151 25 -178
78 -13 26 -35 52 -48 59 -25 12 -36 29 -60 92 -12 32 -13 33 -58 27 -41 -5
-50 -2 -80 24 -40 35 -45 36 -71 10 -20 -20 -20 -20 -26 6 -4 15 6 76 26 152
18 70 36 145 40 167 12 67 12 297 -2 329 -10 25 -9 31 7 42 17 12 18 18 7 47
-14 39 -15 47 -4 46 19 -3 20 4 6 37 -9 20 -13 48 -9 61 4 16 2 22 -4 18 -6
-3 -10 8 -9 29 1 19 5 33 10 30 4 -3 8 2 8 10 0 8 -5 18 -10 21 -8 5 -8 11 -1
19 7 9 5 17 -9 29 -11 9 -20 28 -20 42 0 14 -5 25 -11 25 -5 0 -8 4 -5 9 3 5
-8 23 -26 40 l-31 30 24 10 c13 5 17 10 9 11 -13 0 -13 1 0 10 12 8 10 10 -9
10 -13 0 -22 3 -19 6 11 11 -40 54 -71 60 -23 5 -30 11 -26 22 6 17 -26 52
-49 52 -8 0 -18 5 -21 10 -3 6 -15 10 -26 10 -11 0 -22 7 -25 15 -4 8 -12 15
-20 15 -8 0 -14 5 -14 10 0 6 -11 15 -25 20 -14 5 -25 16 -25 25 0 9 -9 15
-25 15 -14 0 -25 5 -25 11 0 7 -11 9 -30 5 -26 -5 -32 -2 -39 17 -11 27 -76
97 -91 97 -5 0 -10 7 -10 15 0 8 -7 15 -15 15 -9 0 -26 9 -38 21 -12 11 -35
23 -51 26 -16 3 -31 14 -33 23 -6 22 -92 49 -170 54 -11 0 -19 4 -16 9 2 4
-19 7 -47 7 -28 0 -60 4 -70 10 -31 17 -364 21 -483 6z m73 -500 c0 -2 -7 -9
-15 -16 -12 -10 -15 -10 -15 4 0 9 7 16 15 16 8 0 15 -2 15 -4z m-10 -71 c0
-8 -4 -15 -10 -15 -5 0 -10 7 -10 15 0 8 5 15 10 15 6 0 10 -7 10 -15z m0
-135 c0 -5 -2 -10 -4 -10 -3 0 -8 5 -11 10 -3 6 -1 10 4 10 6 0 11 -4 11 -10z
m70 -480 c23 -16 -15 -40 -61 -40 -21 0 -49 -4 -63 -10 -30 -11 -34 0 -8 23
37 33 102 47 132 27z m-50 -140 c0 -5 -7 -10 -16 -10 -8 0 -12 5 -9 10 3 6 10
10 16 10 5 0 9 -4 9 -10z m12 -68 c4 -15 0 -18 -21 -17 -16 0 -27 8 -29 18 -5
25 44 23 50 -1z m1371 -19 c8 -18 12 -33 8 -33 -9 0 -31 45 -31 62 0 15 4 10
23 -29z m-1333 13 c0 -3 -4 -8 -10 -11 -5 -3 -10 -1 -10 4 0 6 5 11 10 11 6 0
10 -2 10 -4z m139 -143 c-8 -10 -20 -22 -26 -26 -10 -6 -10 -12 -1 -26 8 -14
8 -25 -3 -49 -14 -31 -44 -48 -55 -30 -3 5 -14 2 -25 -8 -18 -16 -19 -16 -19
6 0 13 -5 20 -12 17 -48 -17 -58 -18 -58 -3 0 9 7 16 15 16 20 0 19 16 -2 30
-15 9 -13 10 10 5 18 -4 27 -1 27 8 0 22 39 47 75 47 24 0 35 5 35 15 0 10 10
15 26 15 24 0 25 -2 13 -17z m-209 -93 c0 -5 -4 -10 -9 -10 -6 0 -13 5 -16 10
-3 6 1 10 9 10 9 0 16 -4 16 -10z m1377 -102 c-3 -7 -5 -2 -5 12 0 14 2 19 5
13 2 -7 2 -19 0 -25z m-7 -149 c0 -6 -4 -7 -10 -4 -5 3 -10 11 -10 16 0 6 5 7
10 4 6 -3 10 -11 10 -16z m62 -60 c10 -13 21 -39 24 -57 6 -29 4 -32 -12 -25
-17 6 -17 5 -5 -10 9 -12 10 -21 4 -29 -6 -7 -10 -28 -10 -45 0 -40 -6 -48
-30 -38 -12 5 -14 9 -5 12 6 3 12 9 12 14 0 4 -7 6 -15 3 -12 -5 -15 2 -12 35
2 25 -2 50 -11 62 -18 27 -7 37 17 15 17 -16 19 -16 24 6 4 12 3 25 -2 28 -4
3 -11 18 -15 33 -8 35 9 33 36 -4z m-1922 -113 c0 -3 -4 -8 -10 -11 -5 -3 -10
-1 -10 4 0 6 5 11 10 11 6 0 10 -2 10 -4z m457 -138 c-3 -8 -6 -5 -6 6 -1 11
2 17 5 13 3 -3 4 -12 1 -19z m-314 -40 c4 -14 -1 -18 -25 -18 -23 0 -29 4 -24
16 3 9 6 22 6 30 0 20 37 -4 43 -28z m1297 21 c0 -6 -4 -7 -10 -4 -5 3 -10 11
-10 16 0 6 5 7 10 4 6 -3 10 -11 10 -16z m-1250 -25 c0 -8 -4 -12 -10 -9 -5 3
-10 13 -10 21 0 8 5 12 10 9 6 -3 10 -13 10 -21z m43 -61 c-7 -2 -19 -2 -25 0
-7 3 -2 5 12 5 14 0 19 -2 13 -5z m-113 -179 c0 -8 -4 -13 -9 -10 -5 3 -11 -1
-15 -9 -3 -8 -1 -15 4 -15 6 0 10 -9 10 -20 0 -10 8 -24 18 -29 9 -6 13 -10 7
-10 -34 0 -66 69 -44 95 15 19 29 18 29 -2z m2393 -49 c8 -19 -13 -31 -24 -14
-13 20 -11 29 5 29 8 0 16 -7 19 -15z m-2529 -97 c14 -66 16 -102 7 -88 -9 13
-11 12 -11 -5 0 -11 -11 -25 -25 -32 -28 -13 -35 2 -10 21 10 7 16 31 18 68 2
59 13 76 21 36z m47 9 c-1 -4 -1 -14 -1 -22 0 -26 -15 -16 -16 10 -1 15 2 25
8 23 5 -2 9 -7 9 -11z m-98 -67 c3 -11 1 -23 -4 -26 -5 -3 -9 6 -9 20 0 31 6
34 13 6z m124 5 c7 -20 0 -27 -20 -19 -9 3 -13 12 -10 20 7 19 22 18 30 -1z
m2150 -37 c-3 -8 -6 -5 -6 6 -1 11 2 17 5 13 3 -3 4 -12 1 -19z m-2227 -68 c0
-5 -2 -10 -4 -10 -3 0 -8 5 -11 10 -3 6 -1 10 4 10 6 0 11 -4 11 -10z m1477
-192 c-3 -8 -6 -5 -6 6 -1 11 2 17 5 13 3 -3 4 -12 1 -19z m29 -37 c-4 -6 5
-39 40 -143 4 -10 11 -15 17 -11 6 4 7 1 3 -6 -8 -13 11 -72 27 -82 12 -9 -1
-31 -14 -23 -17 10 -48 82 -74 168 -23 81 -25 123 -4 110 5 -3 7 -9 5 -13z
m-1416 -61 c0 -5 -2 -10 -4 -10 -3 0 -8 5 -11 10 -3 6 -1 10 4 10 6 0 11 -4
11 -10z m138 -6 c12 -8 27 -12 32 -9 6 3 10 1 10 -4 0 -15 -41 -13 -62 3 -35
26 -17 36 20 10z m367 -61 c29 -4 45 -10 45 -19 0 -8 6 -14 14 -14 8 0 16 -7
20 -15 3 -8 14 -15 25 -15 11 0 24 -6 28 -14 4 -7 18 -18 31 -25 12 -6 22 -18
22 -26 0 -8 8 -19 19 -24 22 -12 34 -48 18 -58 -7 -4 -3 -9 9 -14 17 -7 17 -8
1 -8 -17 -1 -71 34 -107 69 -9 9 -34 29 -55 45 -56 42 -155 136 -155 148 0 6
9 2 20 -8 10 -9 40 -20 65 -22z m724 -137 c-9 -8 -10 -7 -5 7 3 10 7 26 7 35
1 9 4 6 6 -7 3 -13 -1 -28 -8 -35z m300 -51 c0 -5 -4 -3 -9 5 -5 8 -9 22 -9
30 0 16 17 -16 18 -35z m42 -42 c7 -16 13 -23 16 -15 9 23 23 1 23 -34 0 -22
-4 -33 -11 -29 -6 4 -8 14 -5 22 3 8 2 12 -3 9 -11 -7 -52 54 -45 66 9 13 14
9 25 -19z m48 -190 c0 -5 -4 -17 -9 -28 -8 -18 -9 -17 -9 8 -1 15 4 27 9 27 6
0 10 -3 9 -7z"/>
<path d="M4400 3001 c0 -5 -10 -11 -23 -15 -12 -3 -31 -13 -42 -23 -11 -10
-41 -24 -68 -31 -57 -15 -187 -16 -187 -2 0 6 -9 10 -21 10 -37 0 -17 -33 30
-50 69 -24 67 -29 -34 -114 l-30 -25 37 -1 c20 0 40 5 44 11 8 13 130 69 150
69 8 0 14 4 14 9 0 5 10 13 22 17 12 3 28 13 36 20 7 8 33 19 58 25 l44 11 0
49 c0 37 -4 49 -15 49 -8 0 -15 -4 -15 -9z"/>
<path d="M4000 2742 c0 -7 -9 -12 -20 -12 -11 0 -25 -9 -32 -20 -7 -11 -21
-20 -30 -20 -18 0 -24 -11 -12 -23 6 -6 91 36 109 54 5 6 5 13 -3 21 -9 9 -12
9 -12 0z"/>
<path d="M1327 2662 c-23 -21 -51 -42 -61 -46 -11 -4 -16 -10 -10 -15 13 -13
133 11 143 28 5 8 16 11 26 7 13 -5 16 -2 11 10 -3 8 -6 24 -6 35 0 35 -55 24
-103 -19z"/>
<path d="M3840 2640 c0 -5 5 -10 10 -10 6 0 10 5 10 10 0 6 -4 10 -10 10 -5 0
-10 -4 -10 -10z"/>
<path d="M1376 2527 c-49 -15 -77 -52 -69 -90 5 -28 6 -28 62 -22 65 7 181 26
181 30 0 12 -71 76 -93 84 -33 13 -31 13 -81 -2z m24 -83 c0 -8 -4 -14 -10
-14 -5 0 -10 9 -10 21 0 11 5 17 10 14 6 -3 10 -13 10 -21z"/>
<path d="M1360 2050 c0 -5 -6 -10 -13 -10 -12 0 -55 -72 -65 -110 -11 -39 -13
-130 -3 -130 6 0 7 -7 4 -17 -5 -11 -3 -14 6 -8 8 4 16 2 20 -4 11 -18 60 62
70 112 4 24 9 73 10 110 2 55 -1 67 -13 67 -9 0 -16 -4 -16 -10z"/>
<path d="M1250 1655 c0 -8 5 -15 10 -15 6 0 10 7 10 15 0 8 -4 15 -10 15 -5 0
-10 -7 -10 -15z"/>
<path d="M893 1599 c-51 -15 -63 -42 -63 -139 0 -131 25 -588 46 -837 5 -61 6
-63 34 -63 23 0 216 82 280 119 12 7 15 34 15 147 0 76 -4 184 -8 239 -4 55
-9 123 -10 150 -2 28 -7 60 -11 73 -5 14 -3 29 4 37 15 18 -1 20 -18 3 -9 -9
-12 -9 -12 -1 0 7 -9 15 -20 18 -11 4 -18 10 -15 14 2 5 -2 17 -10 27 -20 26
-18 34 5 29 11 -2 20 0 20 6 0 13 -44 11 -58 -3 -9 -9 -12 -8 -13 8 0 11 -3
14 -6 6 -4 -10 -9 -8 -20 7 -8 12 -12 25 -8 30 3 5 0 13 -6 16 -7 5 -9 23 -5
50 5 29 3 45 -6 53 -20 16 -79 22 -115 11z m177 -239 c0 -31 -3 -38 -15 -34
-18 7 -20 40 -2 59 17 20 17 20 17 -25z"/>
<path d="M3576 1514 c-9 -8 -16 -20 -16 -26 0 -6 1 -9 3 -7 1 2 11 14 21 27
22 25 16 30 -8 6z"/>
<path d="M1330 1340 c0 -5 5 -10 11 -10 5 0 7 5 4 10 -3 6 -8 10 -11 10 -2 0
-4 -4 -4 -10z"/>
<path d="M4290 1313 c-14 -3 -32 -11 -40 -19 -13 -11 -20 -11 -44 1 -28 15
-46 12 -46 -6 0 -6 4 -7 10 -4 5 3 20 -1 34 -10 23 -15 27 -15 68 6 24 13 63
26 88 30 l45 6 -45 0 c-25 0 -56 -2 -70 -4z"/>
<path d="M1420 1291 c0 -6 5 -13 10 -16 6 -3 10 1 10 9 0 9 -4 16 -10 16 -5 0
-10 -4 -10 -9z"/>
<path d="M4080 1260 c0 -5 8 -14 18 -19 13 -8 13 -10 3 -11 -10 0 -11 -3 -5
-9 12 -13 76 1 82 17 2 6 -1 12 -7 12 -6 0 -11 -4 -11 -10 0 -19 -28 -10 -33
10 -5 20 -47 29 -47 10z"/>
<path d="M1396 1234 c-4 -10 -1 -14 6 -12 15 5 23 28 10 28 -5 0 -13 -7 -16
-16z"/>
<path d="M4053 1225 c-6 -14 -8 -25 -4 -25 12 0 31 23 31 37 0 21 -14 15 -27
-12z"/>
<path d="M4020 1179 c0 -5 5 -7 10 -4 6 3 10 8 10 11 0 2 -4 4 -10 4 -5 0 -10
-5 -10 -11z"/>
<path d="M4040 1150 c-13 -8 -12 -10 3 -10 9 0 17 5 17 10 0 12 -1 12 -20 0z"/>
<path d="M3895 1030 c-3 -6 1 -7 9 -4 18 7 21 14 7 14 -6 0 -13 -4 -16 -10z"/>
<path d="M4418 994 c-5 -4 -8 -19 -9 -33 l-1 -26 -11 28 c-16 41 -28 33 -21
-15 4 -29 2 -38 -4 -29 -7 9 -12 10 -16 2 -10 -16 -24 -13 -29 7 -3 9 -6 -1
-7 -23 -2 -25 -4 -32 -7 -17 -2 12 -8 22 -13 22 -5 0 -10 -10 -12 -22 -2 -13
-8 -23 -13 -23 -6 0 -25 -15 -43 -33 -26 -26 -32 -29 -33 -15 0 10 -5 3 -10
-14 -5 -18 -16 -33 -24 -33 -8 0 -15 -5 -15 -10 0 -6 -9 -23 -21 -39 -14 -20
-18 -35 -14 -54 4 -15 11 -24 17 -21 5 3 7 13 3 23 -4 10 -3 12 3 6 5 -5 12
-31 15 -58 4 -39 2 -45 -9 -36 -10 8 -15 5 -20 -16 -7 -28 -19 -24 -27 10 -3
15 -5 12 -6 -9 -1 -21 -5 -27 -16 -22 -11 4 -19 -3 -25 -20 -6 -14 -14 -22
-20 -19 -5 3 -12 -6 -16 -21 -4 -15 -10 -21 -13 -15 -7 11 -61 -60 -61 -80 0
-5 14 -9 30 -9 28 0 30 3 32 38 1 36 1 36 5 5 5 -36 23 -46 23 -13 0 22 15 27
23 8 4 -10 8 -9 16 2 10 13 12 13 21 0 6 -10 10 -11 10 -2 0 6 9 12 19 12 11
0 22 6 24 13 4 9 8 8 16 -3 9 -12 11 -12 16 2 4 9 13 14 21 11 7 -3 17 3 20
12 5 13 9 14 15 4 6 -10 11 -10 23 0 9 8 16 10 16 6 0 -4 7 -2 15 5 8 6 19 9
25 5 5 -3 10 1 10 9 0 9 5 16 10 16 6 0 10 -5 10 -12 0 -6 9 -3 20 7 11 10 20
13 20 7 0 -7 5 -12 10 -12 13 0 13 40 0 60 -6 10 -10 11 -10 3 0 -7 -4 -13
-10 -13 -5 0 -10 9 -10 20 0 25 -20 27 -20 3 -1 -17 -1 -17 -14 -1 -7 10 -16
15 -20 11 -4 -4 -11 -1 -17 7 -8 13 -10 13 -19 0 -9 -13 -12 -12 -25 4 -12 15
-15 16 -15 5 0 -11 -10 -16 -29 -16 -31 0 -42 18 -40 67 1 14 3 18 6 9 2 -10
15 -16 33 -16 18 0 31 6 33 16 4 14 5 14 6 0 1 -13 11 -16 44 -16 23 0 63 -1
89 -3 26 -3 50 -2 53 1 3 4 4 86 3 183 -2 98 -6 174 -10 170z"/>
<path d="M3810 965 c-17 -21 -5 -31 15 -12 8 9 15 18 15 21 0 11 -18 6 -30 -9z"/>
<path d="M1520 794 c0 -8 5 -12 10 -9 6 4 8 11 5 16 -9 14 -15 11 -15 -7z"/>
<path d="M4080 663 c0 -21 3 -24 9 -14 5 8 7 20 4 28 -8 21 -13 15 -13 -14z"/>
<path d="M1535 647 c-4 -10 -5 -21 -1 -24 10 -10 18 4 13 24 -4 17 -4 17 -12
0z"/>
<path d="M4423 545 c0 -22 2 -30 4 -17 2 12 2 30 0 40 -3 9 -5 -1 -4 -23z"/>
<path d="M125 517 c-12 -7 -44 -29 -73 -50 -41 -31 -52 -45 -52 -67 0 -30 5
-32 128 -46 38 -5 52 -11 53 -23 0 -9 0 -87 -1 -173 -1 -137 0 -158 14 -158 9
0 18 11 22 24 3 14 14 32 24 41 17 15 27 16 86 6 36 -7 67 -11 68 -9 12 28 27
44 45 46 34 5 51 -16 51 -64 0 -42 1 -44 30 -44 l30 0 -6 122 c-9 163 1 200
62 236 71 42 98 67 91 84 -10 26 -103 42 -262 43 -128 1 -158 5 -205 23 -61
24 -75 25 -105 9z"/>
<path d="M1530 520 c-13 -8 -12 -10 3 -10 9 0 17 5 17 10 0 12 -1 12 -20 0z"/>
<path d="M1547 457 c-11 -29 -9 -53 4 -40 6 6 9 21 7 34 -3 21 -4 22 -11 6z"/>
<path d="M3353 390 c0 -25 2 -35 4 -22 2 12 2 32 0 45 -2 12 -4 2 -4 -23z"/>
<path d="M4390 348 c0 -21 -16 -24 -23 -5 -3 6 -11 -3 -19 -21 -14 -33 -15
-33 -26 -10 -10 22 -11 22 -11 -9 -1 -28 -21 -61 -21 -34 0 6 -4 11 -10 11 -5
0 -9 -3 -8 -7 2 -5 -5 -19 -15 -33 -15 -22 -17 -23 -17 -5 -1 15 -6 11 -19
-14 -12 -23 -20 -30 -23 -20 -4 9 -11 2 -21 -20 -8 -19 -16 -29 -18 -23 -2 6
-14 3 -28 -9 -18 -15 -25 -32 -29 -72 -5 -58 7 -58 18 0 l8 38 2 -40 c1 -22 5
-49 10 -60 7 -15 9 -10 10 25 l1 45 19 -35 c17 -31 19 -32 20 -12 0 19 4 22
20 17 13 -4 20 -2 20 6 0 7 6 4 15 -7 8 -11 15 -14 15 -6 0 17 20 15 20 -3 0
-8 5 -15 10 -15 6 0 10 7 10 16 0 14 3 14 15 4 12 -10 15 -10 15 0 0 7 7 10
17 6 9 -4 19 -2 23 4 5 7 15 8 33 1 l27 -11 0 158 c0 151 -1 158 -20 158 -13
0 -20 -7 -20 -18z"/>
<path d="M1443 352 c-11 -7 -36 -93 -29 -99 2 -2 12 21 23 52 12 30 20 55 19
55 0 0 -6 -4 -13 -8z"/>
<path d="M1401 208 c-1 -10 -6 -18 -12 -18 -5 0 -7 -5 -3 -11 9 -15 28 16 20
34 -2 7 -5 4 -5 -5z"/>
<path d="M1797 99 c4 -13 8 -18 11 -10 2 7 -1 18 -6 23 -8 8 -9 4 -5 -13z"/>
<path d="M4072 60 c0 -19 2 -27 5 -17 2 9 2 25 0 35 -3 9 -5 1 -5 -18z"/>
</g>
</svg>
